<?xml version="1.0" encoding="utf-8"?>
<!-- Generator: Adobe Illustrator 25.2.3, SVG Export Plug-In . SVG Version: 6.00 Build 0)  -->
<svg version="1.1" id="Layer_1" xmlns="http://www.w3.org/2000/svg" xmlns:xlink="http://www.w3.org/1999/xlink" x="0px" y="0px"
	 viewBox="0 0 115 115" style="enable-background:new 0 0 115 115;" xml:space="preserve">
<style type="text/css">
	.st0{fill:#D8D8D8;}
	.st1{fill:#6E6E6E;}
</style>
<path class="st0" d="M57.5,1.1c31.1,0,56.3,25.2,56.3,56.3s-25.2,56.3-56.3,56.3S1.1,88.6,1.1,57.5S26.4,1.1,57.5,1.1 M57.5,0
	C25.7,0,0,25.7,0,57.5S25.7,115,57.5,115S115,89.3,115,57.5S89.3,0,57.5,0z"/>
<path class="st1" d="M76.8,69c-0.4,0-0.8,0-1.2,0.1l-25-25v-7.9L45.5,31h-9.3l7.1,7.1l-4.1,4.1l-7.1-7.1v9.4l5.2,5.2h7.9l24.5,24.4
	c-0.2,0.7-0.3,1.4-0.3,2.1c0,4.1,3.3,7.4,7.4,7.5c4.1,0,7.4-3.3,7.5-7.4C84.2,72.4,80.9,69,76.8,69C76.8,69,76.8,69,76.8,69z
	 M76.8,79.8c-1.9,0-3.4-1.5-3.4-3.3c0-1.9,1.5-3.4,3.3-3.4c1.9,0,3.4,1.5,3.4,3.3c0,0,0,0,0,0C80.1,78.3,78.6,79.8,76.8,79.8
	L76.8,79.8z"/>
</svg>
