<?xml version="1.0" encoding="utf-8"?>
<!-- Generator: Adobe Illustrator 25.2.3, SVG Export Plug-In . SVG Version: 6.00 Build 0)  -->
<svg version="1.1" id="Layer_1" xmlns="http://www.w3.org/2000/svg" xmlns:xlink="http://www.w3.org/1999/xlink" x="0px" y="0px"
	 viewBox="0 0 115 115" style="enable-background:new 0 0 115 115;" xml:space="preserve">
<style type="text/css">
	.st0{fill:#D8D8D8;}
	.st1{fill:#6E6E6E;}
</style>
<path class="st0" d="M57.5,1.1c31.1,0,56.3,25.2,56.3,56.3s-25.2,56.3-56.3,56.3S1.1,88.6,1.1,57.5S26.4,1.1,57.5,1.1 M57.5,0
	C25.7,0,0,25.7,0,57.5S25.7,115,57.5,115S115,89.3,115,57.5S89.3,0,57.5,0z"/>
<path class="st1" d="M81.4,29.7H33.8c-5.7,0-10.3,4.6-10.3,10.4v32.6c0.1,7,5.8,12.6,12.8,12.7H38v-7.6h43.4
	c5.6,0,10.2-4.6,10.2-10.2V40.1C91.6,34.4,87,29.8,81.4,29.7z M49.5,58.9H34c0,0-0.4,0-0.3-0.5c0-0.1,4-8.2,4-8.2s0.3-0.5,1-0.5
	h10.6c0,0,0.1,0.1,0.1-0.1v-2.9c0,0,0-0.5,0.6-0.5h14.5c0.3,0,0.6,0.3,0.6,0.6l0,0v2.9c0,0.1,0.1,0.1,0.1,0.1l0,0H81
	c0.1,0,0.6,0.1,0.4,0.3l-4,8c-0.1,0.4-0.5,0.6-0.9,0.6h-11c-0.1,0-0.1,0.1-0.1,0.1l0,0v2.8c0,0.3-0.3,0.6-0.6,0.6l0,0H50.2
	c-0.3,0-0.6-0.3-0.6-0.6l0,0L49.5,58.9L49.5,58.9z"/>
</svg>
